<svg xmlns="http://www.w3.org/2000/svg" enable-background="new -250 252 98 98" viewBox="-250 252 98 98"><polygon fill="#7893DC" points="-189 328.5 -192.5 335.1 -189 341.7 -196.4 340.4 -201.6 345.7 -202.6 338.4 -209.2 335.1 -202.6 331.8 -201.6 324.5 -196.4 329.8"/><polygon fill="#ff7ca6" points="-218.9 324.8 -222.5 331.7 -218.9 338.6 -226.6 337.4 -232.1 342.9 -233.3 335.2 -240.3 331.7 -233.3 328.2 -232.1 320.4 -226.6 326.1"/><polygon fill="#7893DC" points="-227.4 291.4 -230.9 297.9 -227.4 304.6 -234.8 303.4 -240 308.7 -241.2 301.3 -247.9 297.9 -241.2 294.6 -240 287.2 -234.8 292.6"/><g><path fill="#ff7ca6" d="M-230 284c-.5 0-1-.2-1.4-.6-.8-.7-.8-1.9-.1-2.7 0 0 .1-.1.1-.1l6-6c.8-.8 2.1-.8 2.9 0 .7.8.7 2.1 0 2.9l-6.1 5.9C-229 283.8-229.5 284-230 284zM-218.7 272.8c-.5 0-1-.2-1.4-.6-.8-.7-.8-1.9-.1-2.7 0 0 .1-.1.1-.1l4.6-4.6c.7-.9 1.9-1.1 2.8-.4s1.1 1.9.4 2.8c-.1.2-.2.3-.4.4l-4.6 4.6C-217.7 272.6-218.2 272.8-218.7 272.8zM-209.6 263.7c-.5 0-1-.2-1.4-.6-.8-.7-.8-1.9-.1-2.7 0 0 .1-.1.1-.1l3.3-3.4c.8-.8 2-.8 2.8-.1.8.8.8 2 .1 2.9l-3.3 3.4C-208.5 263.5-209 263.7-209.6 263.7zM-217.4 291.7c-.5 0-1-.2-1.4-.6-.8-.8-.8-2.1 0-2.9l10.9-11c.8-.7 2-.7 2.8 0 .8.8.8 2 .1 2.9l-10.9 11C-216.3 291.5-216.8 291.7-217.4 291.7zM-200.5 274.8c-.5 0-1-.2-1.4-.6-.8-.7-.8-1.9-.1-2.7 0 0 .1-.1.1-.1l8.1-8.2c.8-.8 2-.8 2.8-.1.8.8.8 2.1 0 2.9l-8.1 8.2C-199.5 274.6-200 274.8-200.5 274.8z"/><path fill="#7893DC" d="M-219.3 320.5c-.5 0-1-.2-1.4-.5-.8-.8-.8-2.1 0-2.9l18.9-18.9c.9-.7 2.1-.5 2.8.4.5.7.5 1.7 0 2.4l-18.9 19C-218.3 320.3-218.8 320.5-219.3 320.5zM-196.7 297.9c-.5 0-1-.2-1.4-.6-.8-.7-.8-1.9-.1-2.7 0 0 .1-.1.1-.1l15.9-15.9c.8-.7 2-.7 2.8 0 .8.8.8 2.1 0 2.9l-15.9 15.8C-195.7 297.7-196.2 297.9-196.7 297.9z"/><path fill="#ff7ca6" d="M-195.5 322.2c-.5 0-1-.2-1.4-.6-.7-.8-.7-2 0-2.8l11-11c.8-.8 2.1-.8 2.9 0 .7.8.7 2 0 2.8l-11 11C-194.4 322-194.9 322.2-195.5 322.2zM-179.2 306.1c-.5 0-1-.2-1.4-.6-.8-.7-.8-1.9-.1-2.7 0 0 .1-.1.1-.1l4.6-4.7c.7-.9 1.9-1.1 2.8-.4s1.1 1.9.4 2.8c-.1.2-.2.3-.4.4l-4.6 4.7C-178.2 305.9-178.7 306.1-179.2 306.1zM-180.7 327.8c-.5 0-1-.2-1.4-.6-.8-.7-.8-1.9-.1-2.7 0 0 .1-.1.1-.1l10.9-11.1c.8-.8 2.1-.8 2.9 0 .8.7.8 1.9.1 2.7 0 0-.1.1-.1.1l-11 11.1C-179.7 327.6-180.2 327.8-180.7 327.8zM-165.2 312.2c-.5 0-1-.2-1.4-.6-.8-.8-.8-2.1 0-2.9l9-8.9c.8-.8 2.1-.8 2.9 0 .7.8.7 2 0 2.8l-9.1 9C-164.2 312-164.7 312.2-165.2 312.2z"/></g></svg>